<?xml version="1.0" encoding="UTF-8"?>
<svg xmlns="http://www.w3.org/2000/svg" xmlns:xlink="http://www.w3.org/1999/xlink" width="13pt" height="13pt" viewBox="0 0 13 13" version="1.1">
    <g id="surface1">
        <path style=" stroke:none;fill-rule:nonzero;fill:rgb(44.705882%,63.921569%,98.823529%);fill-opacity:1;" d="M 12.886719 2.144531 L 10.855469 0.113281 C 10.785156 0.0390625 10.6875 0 10.585938 0 L 0.382812 0 C 0.171875 0 0 0.171875 0 0.382812 L 0 12.617188 C 0 12.828125 0.171875 13 0.382812 13 L 12.617188 13 C 12.828125 13 13 12.828125 13 12.617188 L 13 2.414062 C 13 2.3125 12.960938 2.214844 12.886719 2.144531 Z M 12.886719 2.144531 "/>
        <path style=" stroke:none;fill-rule:nonzero;fill:rgb(15.686275%,57.254902%,98.823529%);fill-opacity:1;" d="M 12.886719 2.144531 L 10.855469 0.113281 C 10.785156 0.0390625 10.6875 0 10.585938 0 L 6.5 0 L 6.5 13 L 12.617188 13 C 12.828125 13 13 12.828125 13 12.617188 L 13 2.414062 C 13 2.3125 12.960938 2.214844 12.886719 2.144531 Z M 12.886719 2.144531 "/>
        <path style=" stroke:none;fill-rule:nonzero;fill:rgb(97.647059%,97.647059%,97.647059%);fill-opacity:1;" d="M 10.308594 6.144531 L 2.691406 6.144531 C 2.480469 6.144531 2.3125 6.316406 2.3125 6.523438 L 2.3125 13 L 10.6875 13 L 10.6875 6.523438 C 10.6875 6.316406 10.519531 6.144531 10.308594 6.144531 Z M 10.308594 6.144531 "/>
        <path style=" stroke:none;fill-rule:nonzero;fill:rgb(87.45098%,89.411765%,91.764706%);fill-opacity:1;" d="M 10.6875 6.523438 C 10.6875 6.316406 10.519531 6.144531 10.308594 6.144531 L 6.5 6.144531 L 6.5 13 L 10.6875 13 Z M 10.6875 6.523438 "/>
        <path style=" stroke:none;fill-rule:nonzero;fill:rgb(98.039216%,83.529412%,34.117647%);fill-opacity:1;" d="M 8.785156 11.476562 L 4.214844 11.476562 C 4.003906 11.476562 3.835938 11.304688 3.835938 11.09375 C 3.835938 10.886719 4.003906 10.714844 4.214844 10.714844 L 8.785156 10.714844 C 8.996094 10.714844 9.164062 10.886719 9.164062 11.09375 C 9.164062 11.304688 8.996094 11.476562 8.785156 11.476562 Z M 8.785156 11.476562 "/>
        <path style=" stroke:none;fill-rule:nonzero;fill:rgb(98.039216%,83.529412%,34.117647%);fill-opacity:1;" d="M 8.785156 8.429688 L 4.214844 8.429688 C 4.003906 8.429688 3.835938 8.257812 3.835938 8.046875 C 3.835938 7.839844 4.003906 7.667969 4.214844 7.667969 L 8.785156 7.667969 C 8.996094 7.667969 9.164062 7.839844 9.164062 8.046875 C 9.164062 8.257812 8.996094 8.429688 8.785156 8.429688 Z M 8.785156 8.429688 "/>
        <path style=" stroke:none;fill-rule:nonzero;fill:rgb(98.039216%,83.529412%,34.117647%);fill-opacity:1;" d="M 8.785156 9.953125 L 4.214844 9.953125 C 4.003906 9.953125 3.835938 9.78125 3.835938 9.570312 C 3.835938 9.363281 4.003906 9.191406 4.214844 9.191406 L 8.785156 9.191406 C 8.996094 9.191406 9.164062 9.363281 9.164062 9.570312 C 9.164062 9.78125 8.996094 9.953125 8.785156 9.953125 Z M 8.785156 9.953125 "/>
        <path style=" stroke:none;fill-rule:nonzero;fill:rgb(32.941176%,34.509804%,91.764706%);fill-opacity:1;" d="M 9.164062 0 L 2.3125 0 L 2.3125 3.679688 C 2.3125 3.890625 2.480469 4.0625 2.691406 4.0625 L 8.785156 4.0625 C 8.996094 4.0625 9.164062 3.890625 9.164062 3.679688 Z M 9.164062 0 "/>
        <path style=" stroke:none;fill-rule:nonzero;fill:rgb(20.784314%,27.058824%,89.019608%);fill-opacity:1;" d="M 6.5 0 L 6.5 4.0625 L 8.785156 4.0625 C 8.996094 4.0625 9.164062 3.890625 9.164062 3.679688 L 9.164062 0 Z M 6.5 0 "/>
        <path style=" stroke:none;fill-rule:nonzero;fill:rgb(98.823529%,69.411765%,16.862745%);fill-opacity:1;" d="M 8.785156 10.714844 L 6.5 10.714844 L 6.5 11.476562 L 8.785156 11.476562 C 8.996094 11.476562 9.164062 11.304688 9.164062 11.09375 C 9.164062 10.886719 8.996094 10.714844 8.785156 10.714844 Z M 8.785156 10.714844 "/>
        <path style=" stroke:none;fill-rule:nonzero;fill:rgb(98.823529%,69.411765%,16.862745%);fill-opacity:1;" d="M 8.785156 7.667969 L 6.5 7.667969 L 6.5 8.429688 L 8.785156 8.429688 C 8.996094 8.429688 9.164062 8.257812 9.164062 8.046875 C 9.164062 7.839844 8.996094 7.667969 8.785156 7.667969 Z M 8.785156 7.667969 "/>
        <path style=" stroke:none;fill-rule:nonzero;fill:rgb(98.823529%,69.411765%,16.862745%);fill-opacity:1;" d="M 8.785156 9.191406 L 6.5 9.191406 L 6.5 9.953125 L 8.785156 9.953125 C 8.996094 9.953125 9.164062 9.78125 9.164062 9.570312 C 9.164062 9.363281 8.996094 9.191406 8.785156 9.191406 Z M 8.785156 9.191406 "/>
    </g>
</svg>
