<?xml version="1.0" encoding="UTF-8"?>
<svg xmlns="http://www.w3.org/2000/svg" xmlns:xlink="http://www.w3.org/1999/xlink" width="16pt" height="16pt" viewBox="0 0 16 16" version="1.1">
    <g id="surface1">
        <path style=" stroke:none;fill-rule:nonzero;fill:rgb(44.705882%,63.921569%,98.823529%);fill-opacity:1;" d="M 15.863281 2.636719 L 13.363281 0.136719 C 13.273438 0.0507812 13.15625 0 13.03125 0 L 0.46875 0 C 0.210938 0 0 0.210938 0 0.46875 L 0 15.53125 C 0 15.789062 0.210938 16 0.46875 16 L 15.53125 16 C 15.789062 16 16 15.789062 16 15.53125 L 16 2.96875 C 16 2.84375 15.949219 2.726562 15.863281 2.636719 Z M 15.863281 2.636719 "/>
        <path style=" stroke:none;fill-rule:nonzero;fill:rgb(15.686275%,57.254902%,98.823529%);fill-opacity:1;" d="M 15.863281 2.636719 L 13.363281 0.136719 C 13.273438 0.0507812 13.15625 0 13.03125 0 L 8 0 L 8 16 L 15.53125 16 C 15.789062 16 16 15.789062 16 15.53125 L 16 2.96875 C 16 2.84375 15.949219 2.726562 15.863281 2.636719 Z M 15.863281 2.636719 "/>
        <path style=" stroke:none;fill-rule:nonzero;fill:rgb(97.647059%,97.647059%,97.647059%);fill-opacity:1;" d="M 12.6875 7.5625 L 3.3125 7.5625 C 3.054688 7.5625 2.84375 7.773438 2.84375 8.03125 L 2.84375 16 L 13.15625 16 L 13.15625 8.03125 C 13.15625 7.773438 12.945312 7.5625 12.6875 7.5625 Z M 12.6875 7.5625 "/>
        <path style=" stroke:none;fill-rule:nonzero;fill:rgb(87.45098%,89.411765%,91.764706%);fill-opacity:1;" d="M 13.15625 8.03125 C 13.15625 7.773438 12.945312 7.5625 12.6875 7.5625 L 8 7.5625 L 8 16 L 13.15625 16 Z M 13.15625 8.03125 "/>
        <path style=" stroke:none;fill-rule:nonzero;fill:rgb(98.039216%,83.529412%,34.117647%);fill-opacity:1;" d="M 10.8125 14.125 L 5.1875 14.125 C 4.929688 14.125 4.71875 13.914062 4.71875 13.65625 C 4.71875 13.398438 4.929688 13.1875 5.1875 13.1875 L 10.8125 13.1875 C 11.070312 13.1875 11.28125 13.398438 11.28125 13.65625 C 11.28125 13.914062 11.070312 14.125 10.8125 14.125 Z M 10.8125 14.125 "/>
        <path style=" stroke:none;fill-rule:nonzero;fill:rgb(98.039216%,83.529412%,34.117647%);fill-opacity:1;" d="M 10.8125 10.375 L 5.1875 10.375 C 4.929688 10.375 4.71875 10.164062 4.71875 9.90625 C 4.71875 9.648438 4.929688 9.4375 5.1875 9.4375 L 10.8125 9.4375 C 11.070312 9.4375 11.28125 9.648438 11.28125 9.90625 C 11.28125 10.164062 11.070312 10.375 10.8125 10.375 Z M 10.8125 10.375 "/>
        <path style=" stroke:none;fill-rule:nonzero;fill:rgb(98.039216%,83.529412%,34.117647%);fill-opacity:1;" d="M 10.8125 12.25 L 5.1875 12.25 C 4.929688 12.25 4.71875 12.039062 4.71875 11.78125 C 4.71875 11.523438 4.929688 11.3125 5.1875 11.3125 L 10.8125 11.3125 C 11.070312 11.3125 11.28125 11.523438 11.28125 11.78125 C 11.28125 12.039062 11.070312 12.25 10.8125 12.25 Z M 10.8125 12.25 "/>
        <path style=" stroke:none;fill-rule:nonzero;fill:rgb(32.941176%,34.509804%,91.764706%);fill-opacity:1;" d="M 11.28125 0 L 2.84375 0 L 2.84375 4.53125 C 2.84375 4.789062 3.054688 5 3.3125 5 L 10.8125 5 C 11.070312 5 11.28125 4.789062 11.28125 4.53125 Z M 11.28125 0 "/>
        <path style=" stroke:none;fill-rule:nonzero;fill:rgb(20.784314%,27.058824%,89.019608%);fill-opacity:1;" d="M 8 0 L 8 5 L 10.8125 5 C 11.070312 5 11.28125 4.789062 11.28125 4.53125 L 11.28125 0 Z M 8 0 "/>
        <path style=" stroke:none;fill-rule:nonzero;fill:rgb(98.823529%,69.411765%,16.862745%);fill-opacity:1;" d="M 10.8125 13.1875 L 8 13.1875 L 8 14.125 L 10.8125 14.125 C 11.070312 14.125 11.28125 13.914062 11.28125 13.65625 C 11.28125 13.398438 11.070312 13.1875 10.8125 13.1875 Z M 10.8125 13.1875 "/>
        <path style=" stroke:none;fill-rule:nonzero;fill:rgb(98.823529%,69.411765%,16.862745%);fill-opacity:1;" d="M 10.8125 9.4375 L 8 9.4375 L 8 10.375 L 10.8125 10.375 C 11.070312 10.375 11.28125 10.164062 11.28125 9.90625 C 11.28125 9.648438 11.070312 9.4375 10.8125 9.4375 Z M 10.8125 9.4375 "/>
        <path style=" stroke:none;fill-rule:nonzero;fill:rgb(98.823529%,69.411765%,16.862745%);fill-opacity:1;" d="M 10.8125 11.3125 L 8 11.3125 L 8 12.25 L 10.8125 12.25 C 11.070312 12.25 11.28125 12.039062 11.28125 11.78125 C 11.28125 11.523438 11.070312 11.3125 10.8125 11.3125 Z M 10.8125 11.3125 "/>
    </g>
</svg>
